<?xml version='1.0' encoding='UTF-8'?>
<svg width="82mm" height="82mm" version="1.1" viewBox="0 0 82 82" xmlns="http://www.w3.org/2000/svg"><path d="M8,8H10V10H8zM10,8H12V10H10zM12,8H14V10H12zM14,8H16V10H14zM16,8H18V10H16zM18,8H20V10H18zM20,8H22V10H20zM24,8H26V10H24zM26,8H28V10H26zM34,8H36V10H34zM40,8H42V10H40zM44,8H46V10H44zM46,8H48V10H46zM48,8H50V10H48zM50,8H52V10H50zM54,8H56V10H54zM60,8H62V10H60zM62,8H64V10H62zM64,8H66V10H64zM66,8H68V10H66zM68,8H70V10H68zM70,8H72V10H70zM72,8H74V10H72zM8,10H10V12H8zM20,10H22V12H20zM24,10H26V12H24zM34,10H36V12H34zM42,10H44V12H42zM44,10H46V12H44zM54,10H56V12H54zM60,10H62V12H60zM72,10H74V12H72zM8,12H10V14H8zM12,12H14V14H12zM14,12H16V14H14zM16,12H18V14H16zM20,12H22V14H20zM28,12H30V14H28zM30,12H32V14H30zM38,12H40V14H38zM40,12H42V14H40zM44,12H46V14H44zM46,12H48V14H46zM60,12H62V14H60zM64,12H66V14H64zM66,12H68V14H66zM68,12H70V14H68zM72,12H74V14H72zM8,14H10V16H8zM12,14H14V16H12zM14,14H16V16H14zM16,14H18V16H16zM20,14H22V16H20zM24,14H26V16H24zM26,14H28V16H26zM36,14H38V16H36zM38,14H40V16H38zM42,14H44V16H42zM52,14H54V16H52zM56,14H58V16H56zM60,14H62V16H60zM64,14H66V16H64zM66,14H68V16H66zM68,14H70V16H68zM72,14H74V16H72zM8,16H10V18H8zM12,16H14V18H12zM14,16H16V18H14zM16,16H18V18H16zM20,16H22V18H20zM28,16H30V18H28zM34,16H36V18H34zM36,16H38V18H36zM46,16H48V18H46zM56,16H58V18H56zM60,16H62V18H60zM64,16H66V18H64zM66,16H68V18H66zM68,16H70V18H68zM72,16H74V18H72zM8,18H10V20H8zM20,18H22V20H20zM28,18H30V20H28zM30,18H32V20H30zM32,18H34V20H32zM34,18H36V20H34zM42,18H44V20H42zM46,18H48V20H46zM52,18H54V20H52zM60,18H62V20H60zM72,18H74V20H72zM8,20H10V22H8zM10,20H12V22H10zM12,20H14V22H12zM14,20H16V22H14zM16,20H18V22H16zM18,20H20V22H18zM20,20H22V22H20zM24,20H26V22H24zM28,20H30V22H28zM32,20H34V22H32zM36,20H38V22H36zM40,20H42V22H40zM44,20H46V22H44zM48,20H50V22H48zM52,20H54V22H52zM56,20H58V22H56zM60,20H62V22H60zM62,20H64V22H62zM64,20H66V22H64zM66,20H68V22H66zM68,20H70V22H68zM70,20H72V22H70zM72,20H74V22H72zM24,22H26V24H24zM26,22H28V24H26zM30,22H32V24H30zM38,22H40V24H38zM40,22H42V24H40zM42,22H44V24H42zM44,22H46V24H44zM52,22H54V24H52zM8,24H10V26H8zM12,24H14V26H12zM14,24H16V26H14zM18,24H20V26H18zM20,24H22V26H20zM22,24H24V26H22zM26,24H28V26H26zM28,24H30V26H28zM30,24H32V26H30zM36,24H38V26H36zM38,24H40V26H38zM42,24H44V26H42zM46,24H48V26H46zM50,24H52V26H50zM56,24H58V26H56zM60,24H62V26H60zM66,24H68V26H66zM70,24H72V26H70zM72,24H74V26H72zM8,26H10V28H8zM10,26H12V28H10zM14,26H16V28H14zM16,26H18V28H16zM22,26H24V28H22zM28,26H30V28H28zM30,26H32V28H30zM32,26H34V28H32zM36,26H38V28H36zM40,26H42V28H40zM42,26H44V28H42zM44,26H46V28H44zM46,26H48V28H46zM48,26H50V28H48zM54,26H56V28H54zM60,26H62V28H60zM62,26H64V28H62zM66,26H68V28H66zM68,26H70V28H68zM72,26H74V28H72zM8,28H10V30H8zM10,28H12V30H10zM12,28H14V30H12zM18,28H20V30H18zM20,28H22V30H20zM22,28H24V30H22zM26,28H28V30H26zM30,28H32V30H30zM36,28H38V30H36zM40,28H42V30H40zM44,28H46V30H44zM48,28H50V30H48zM54,28H56V30H54zM56,28H58V30H56zM58,28H60V30H58zM62,28H64V30H62zM64,28H66V30H64zM66,28H68V30H66zM70,28H72V30H70zM72,28H74V30H72zM8,30H10V32H8zM10,30H12V32H10zM12,30H14V32H12zM14,30H16V32H14zM18,30H20V32H18zM26,30H28V32H26zM28,30H30V32H28zM34,30H36V32H34zM36,30H38V32H36zM40,30H42V32H40zM46,30H48V32H46zM58,30H60V32H58zM60,30H62V32H60zM62,30H64V32H62zM66,30H68V32H66zM72,30H74V32H72zM12,32H14V34H12zM18,32H20V34H18zM20,32H22V34H20zM22,32H24V34H22zM24,32H26V34H24zM26,32H28V34H26zM28,32H30V34H28zM32,32H34V34H32zM42,32H44V34H42zM44,32H46V34H44zM52,32H54V34H52zM58,32H60V34H58zM62,32H64V34H62zM64,32H66V34H64zM66,32H68V34H66zM70,32H72V34H70zM8,34H10V36H8zM12,34H14V36H12zM18,34H20V36H18zM22,34H24V36H22zM26,34H28V36H26zM32,34H34V36H32zM34,34H36V36H34zM38,34H40V36H38zM46,34H48V36H46zM50,34H52V36H50zM56,34H58V36H56zM66,34H68V36H66zM68,34H70V36H68zM70,34H72V36H70zM8,36H10V38H8zM10,36H12V38H10zM20,36H22V38H20zM24,36H26V38H24zM26,36H28V38H26zM28,36H30V38H28zM30,36H32V38H30zM32,36H34V38H32zM34,36H36V38H34zM44,36H46V38H44zM46,36H48V38H46zM50,36H52V38H50zM52,36H54V38H52zM60,36H62V38H60zM66,36H68V38H66zM10,38H12V40H10zM12,38H14V40H12zM18,38H20V40H18zM22,38H24V40H22zM30,38H32V40H30zM46,38H48V40H46zM50,38H52V40H50zM52,38H54V40H52zM54,38H56V40H54zM56,38H58V40H56zM58,38H60V40H58zM60,38H62V40H60zM62,38H64V40H62zM66,38H68V40H66zM68,38H70V40H68zM8,40H10V42H8zM12,40H14V42H12zM14,40H16V42H14zM16,40H18V42H16zM20,40H22V42H20zM22,40H24V42H22zM30,40H32V42H30zM32,40H34V42H32zM36,40H38V42H36zM44,40H46V42H44zM50,40H52V42H50zM52,40H54V42H52zM54,40H56V42H54zM58,40H60V42H58zM60,40H62V42H60zM64,40H66V42H64zM68,40H70V42H68zM8,42H10V44H8zM12,42H14V44H12zM18,42H20V44H18zM26,42H28V44H26zM34,42H36V44H34zM38,42H40V44H38zM42,42H44V44H42zM48,42H50V44H48zM50,42H52V44H50zM52,42H54V44H52zM54,42H56V44H54zM56,42H58V44H56zM58,42H60V44H58zM60,42H62V44H60zM64,42H66V44H64zM66,42H68V44H66zM70,42H72V44H70zM72,42H74V44H72zM14,44H16V46H14zM20,44H22V46H20zM22,44H24V46H22zM24,44H26V46H24zM26,44H28V46H26zM30,44H32V46H30zM34,44H36V46H34zM38,44H40V46H38zM40,44H42V46H40zM48,44H50V46H48zM52,44H54V46H52zM56,44H58V46H56zM60,44H62V46H60zM62,44H64V46H62zM64,44H66V46H64zM68,44H70V46H68zM70,44H72V46H70zM8,46H10V48H8zM12,46H14V48H12zM14,46H16V48H14zM16,46H18V48H16zM18,46H20V48H18zM24,46H26V48H24zM28,46H30V48H28zM32,46H34V48H32zM34,46H36V48H34zM40,46H42V48H40zM42,46H44V48H42zM44,46H46V48H44zM48,46H50V48H48zM56,46H58V48H56zM58,46H60V48H58zM60,46H62V48H60zM64,46H66V48H64zM12,48H14V50H12zM20,48H22V50H20zM22,48H24V50H22zM26,48H28V50H26zM38,48H40V50H38zM42,48H44V50H42zM44,48H46V50H44zM46,48H48V50H46zM48,48H50V50H48zM50,48H52V50H50zM52,48H54V50H52zM54,48H56V50H54zM66,48H68V50H66zM68,48H70V50H68zM72,48H74V50H72zM8,50H10V52H8zM10,50H12V52H10zM18,50H20V52H18zM22,50H24V52H22zM26,50H28V52H26zM28,50H30V52H28zM30,50H32V52H30zM34,50H36V52H34zM36,50H38V52H36zM40,50H42V52H40zM42,50H44V52H42zM44,50H46V52H44zM46,50H48V52H46zM48,50H50V52H48zM54,50H56V52H54zM60,50H62V52H60zM66,50H68V52H66zM68,50H70V52H68zM72,50H74V52H72zM14,52H16V54H14zM16,52H18V54H16zM20,52H22V54H20zM22,52H24V54H22zM24,52H26V54H24zM42,52H44V54H42zM50,52H52V54H50zM52,52H54V54H52zM54,52H56V54H54zM56,52H58V54H56zM58,52H60V54H58zM62,52H64V54H62zM66,52H68V54H66zM70,52H72V54H70zM72,52H74V54H72zM10,54H12V56H10zM16,54H18V56H16zM22,54H24V56H22zM24,54H26V56H24zM26,54H28V56H26zM28,54H30V56H28zM30,54H32V56H30zM46,54H48V56H46zM52,54H54V56H52zM54,54H56V56H54zM56,54H58V56H56zM58,54H60V56H58zM60,54H62V56H60zM62,54H64V56H62zM64,54H66V56H64zM66,54H68V56H66zM70,54H72V56H70zM8,56H10V58H8zM12,56H14V58H12zM16,56H18V58H16zM20,56H22V58H20zM22,56H24V58H22zM24,56H26V58H24zM26,56H28V58H26zM28,56H30V58H28zM32,56H34V58H32zM38,56H40V58H38zM42,56H44V58H42zM52,56H54V58H52zM54,56H56V58H54zM56,56H58V58H56zM58,56H60V58H58zM60,56H62V58H60zM62,56H64V58H62zM64,56H66V58H64zM70,56H72V58H70zM72,56H74V58H72zM24,58H26V60H24zM28,58H30V60H28zM30,58H32V60H30zM32,58H34V60H32zM34,58H36V60H34zM38,58H40V60H38zM40,58H42V60H40zM44,58H46V60H44zM46,58H48V60H46zM50,58H52V60H50zM54,58H56V60H54zM56,58H58V60H56zM64,58H66V60H64zM66,58H68V60H66zM8,60H10V62H8zM10,60H12V62H10zM12,60H14V62H12zM14,60H16V62H14zM16,60H18V62H16zM18,60H20V62H18zM20,60H22V62H20zM24,60H26V62H24zM26,60H28V62H26zM28,60H30V62H28zM42,60H44V62H42zM46,60H48V62H46zM54,60H56V62H54zM56,60H58V62H56zM60,60H62V62H60zM64,60H66V62H64zM70,60H72V62H70zM8,62H10V64H8zM20,62H22V64H20zM24,62H26V64H24zM32,62H34V64H32zM34,62H36V64H34zM38,62H40V64H38zM40,62H42V64H40zM46,62H48V64H46zM48,62H50V64H48zM50,62H52V64H50zM52,62H54V64H52zM54,62H56V64H54zM56,62H58V64H56zM64,62H66V64H64zM66,62H68V64H66zM68,62H70V64H68zM8,64H10V66H8zM12,64H14V66H12zM14,64H16V66H14zM16,64H18V66H16zM20,64H22V66H20zM26,64H28V66H26zM34,64H36V66H34zM44,64H46V66H44zM46,64H48V66H46zM48,64H50V66H48zM50,64H52V66H50zM52,64H54V66H52zM54,64H56V66H54zM56,64H58V66H56zM58,64H60V66H58zM60,64H62V66H60zM62,64H64V66H62zM64,64H66V66H64zM68,64H70V66H68zM70,64H72V66H70zM72,64H74V66H72zM8,66H10V68H8zM12,66H14V68H12zM14,66H16V68H14zM16,66H18V68H16zM20,66H22V68H20zM24,66H26V68H24zM26,66H28V68H26zM28,66H30V68H28zM32,66H34V68H32zM38,66H40V68H38zM48,66H50V68H48zM52,66H54V68H52zM54,66H56V68H54zM62,66H64V68H62zM68,66H70V68H68zM72,66H74V68H72zM8,68H10V70H8zM12,68H14V70H12zM14,68H16V70H14zM16,68H18V70H16zM20,68H22V70H20zM24,68H26V70H24zM30,68H32V70H30zM36,68H38V70H36zM38,68H40V70H38zM40,68H42V70H40zM48,68H50V70H48zM50,68H52V70H50zM56,68H58V70H56zM60,68H62V70H60zM62,68H64V70H62zM68,68H70V70H68zM8,70H10V72H8zM20,70H22V72H20zM26,70H28V72H26zM28,70H30V72H28zM30,70H32V72H30zM42,70H44V72H42zM44,70H46V72H44zM46,70H48V72H46zM52,70H54V72H52zM54,70H56V72H54zM56,70H58V72H56zM58,70H60V72H58zM62,70H64V72H62zM64,70H66V72H64zM72,70H74V72H72zM8,72H10V74H8zM10,72H12V74H10zM12,72H14V74H12zM14,72H16V74H14zM16,72H18V74H16zM18,72H20V74H18zM20,72H22V74H20zM24,72H26V74H24zM26,72H28V74H26zM32,72H34V74H32zM38,72H40V74H38zM40,72H42V74H40zM42,72H44V74H42zM44,72H46V74H44zM46,72H48V74H46zM50,72H52V74H50zM60,72H62V74H60zM64,72H66V74H64zM66,72H68V74H66zM68,72H70V74H68z" id="qr-path" fill="#000000" fill-opacity="1" fill-rule="nonzero" stroke="none" /></svg>